<?xml version="1.0" encoding="UTF-8" standalone="no"?>
<svg xmlns="http://www.w3.org/2000/svg" viewBox="0 0 800 800">
  <rect width="800" height="800" fill="#f9f4e3" />
  <g fill="none" stroke="#000" stroke-width="5" stroke-linecap="round" stroke-linejoin="round">
    <!-- Clouds -->
    <path d="M180,100 Q200,80 230,90 Q250,60 280,70 Q310,60 330,80 Q340,90 330,110 Q310,120 290,110 Q270,120 240,110 Q210,120 180,110 Q170,90 180,100 Z" fill="none"/>
    <path d="M600,110 Q620,90 650,100 Q670,80 690,90 Q700,100 690,120 Q670,130 650,120 Q630,130 610,120 Q600,100 600,110 Z" fill="none"/>
    <path d="M560,200 Q580,180 610,190 Q630,170 650,180 Q680,170 700,190 Q710,200 700,220 Q680,230 660,220 Q640,230 610,220 Q590,230 570,220 Q560,200 560,200 Z" fill="none"/>
    
    <!-- Trees -->
    <path d="M140,230 Q160,210 180,230 Q200,210 220,230 Q240,250 220,270 Q230,290 210,310 Q190,330 170,310 Q150,330 130,310 Q110,290 120,270 Q100,250 120,230 Q140,210 140,230 Z" fill="none"/>
    <line x1="170" y1="310" x2="170" y2="380" />
    
    <path d="M520,260 Q540,240 560,260 Q580,240 600,260 Q620,280 600,300 Q610,320 590,340 Q570,360 550,340 Q530,360 510,340 Q490,320 500,300 Q480,280 500,260 Q520,240 520,260 Z" fill="none"/>
    <line x1="550" y1="340" x2="550" y2="410" />
    
    <!-- Small bushes -->
    <path d="M140,450 Q160,430 180,450 Q200,430 220,450 Q230,460 220,470 Q200,490 180,470 Q160,490 140,470 Q130,460 140,450 Z" fill="none"/>
    <path d="M600,450 Q620,430 640,450 Q660,430 680,450 Q690,460 680,470 Q660,490 640,470 Q620,490 600,470 Q590,460 600,450 Z" fill="none"/>
    
    <!-- Ground details -->
    <path d="M100,520 Q110,520 120,530" />
    <path d="M200,530 Q210,530 220,540" />
    <path d="M400,540 Q410,540 420,550" />
    <path d="M600,530 Q610,530 620,540" />
    <path d="M700,520 Q710,520 720,530" />
    
    <!-- Path -->
    <path d="M50,550 C200,570 400,580 750,550" stroke-width="3" />
    
    <!-- Person -->
    <circle cx="220" cy="180" r="25" fill="#fff" />  <!-- Head -->
    <path d="M220,205 L220,255 L180,290 L170,285" />  <!-- Left arm -->
    <path d="M220,255 L260,290 L270,280" />  <!-- Right arm -->
    <path d="M220,255 L220,350" />  <!-- Torso -->
    <path d="M220,350 L190,450 L180,480" />  <!-- Left leg -->
    <path d="M220,350 L250,450 L270,480" />  <!-- Right leg -->
    
    <!-- Dog -->
    <ellipse cx="350" cy="430" rx="40" ry="25" />  <!-- Body -->
    <circle cx="400" cy="430" r="15" />  <!-- Head -->
    <path d="M410,425 L425,415" />  <!-- Ear -->
    <path d="M395,435 L405,435" />  <!-- Mouth -->
    <path d="M405,425 L405,425" stroke-width="2" />  <!-- Eye -->
    <path d="M350,430 L330,480" />  <!-- Front leg -->
    <path d="M360,435 L360,480" />  <!-- Middle leg -->
    <path d="M340,435 L320,480" />  <!-- Back leg -->
    <path d="M320,430 L300,440 L290,430" />  <!-- Tail -->
    
    <!-- Leash -->
    <path d="M270,280 L350,430" stroke-dasharray="5,5" />
  </g>
  
  <!-- Fill in the solid parts -->
  <g fill="#000">
    <!-- Person's hair -->
    <path d="M220,155 Q240,145 245,160 Q250,170 240,180 Q230,190 220,185 Q205,190 200,180 Q195,170 200,160 Q205,145 220,155 Z" />
    
    <!-- Person's pants -->
    <path d="M220,350 L190,450 L180,480 L200,480 L220,400 L240,480 L260,480 L250,450 L220,350 Z" />
    
    <!-- Dog's body color -->
    <path d="M350,430 Q390,405 400,415 Q410,425 400,445 Q370,455 350,430 Z" />
    <path d="M400,415 Q405,405 410,425 Z" />
  </g>
</svg>